mtllib sphere.mtl
o sphere
usemtl none
v 0 -0.031250004198714265 -4.198714267241835e-9
v 0 0.031250004198714265 4.198714267241835e-9
v 0.0015294838231056929 0.029720519571126803 0.00965678662139345
v 0.0015294838231056929 0.029720519571126803 0.00965678662139345
v 0.0015294838231056929 0.029720519571126803 0.00965678662139345
v 0.0015294838231056929 0.029720519571126803 0.00965678662139345
v 0.002909251255914569 0.025281782259593627 0.018368294739399677
v 0.002909251255914569 0.025281782259593627 0.018368294739399677
v 0.002909251255914569 0.025281782259593627 0.018368294739399677
v 0.002909251255914569 0.025281782259593627 0.018368294739399677
v 0.004004240967333317 0.018368287945737218 0.02528178719547821
v 0.004004240967333317 0.018368287945737218 0.02528178719547821
v 0.004004240967333317 0.018368287945737218 0.02528178719547821
v 0.004004240967333317 0.018368287945737218 0.02528178719547821
v 0.0047072675079107285 0.009656778634964122 0.029720522166074997
v 0.0047072675079107285 0.009656778634964122 0.029720522166074997
v 0.0047072675079107285 0.009656778634964122 0.029720522166074997
v 0.0047072675079107285 0.009656778634964122 0.029720522166074997
v 0.004949513822793961 -4.198714265328324e-9 0.031250004198714265
v 0.004949513822793961 -4.198714265328324e-9 0.031250004198714265
v 0.004949513822793961 -4.198714265328324e-9 0.031250004198714265
v 0.004949513822793961 -4.198714265328324e-9 0.031250004198714265
v 0.0047072675079107285 -0.00965678662139345 0.029720519571126803
v 0.0047072675079107285 -0.00965678662139345 0.029720519571126803
v 0.0047072675079107285 -0.00965678662139345 0.029720519571126803
v 0.0047072675079107285 -0.00965678662139345 0.029720519571126803
v 0.004004240967333317 -0.018368294739399677 0.025281782259593627
v 0.004004240967333317 -0.018368294739399677 0.025281782259593627
v 0.004004240967333317 -0.018368294739399677 0.025281782259593627
v 0.004004240967333317 -0.018368294739399677 0.025281782259593627
v 0.002909251255914569 -0.02528178719547821 0.018368287945737218
v 0.002909251255914569 -0.02528178719547821 0.018368287945737218
v 0.002909251255914569 -0.02528178719547821 0.018368287945737218
v 0.002909251255914569 -0.02528178719547821 0.018368287945737218
v 0.0015294838231056929 -0.029720522166074997 0.009656778634964122
v 0.0015294838231056929 -0.029720522166074997 0.009656778634964122
v 0.0015294838231056929 -0.029720522166074997 0.009656778634964122
v 0.0015294838231056929 -0.029720522166074997 0.009656778634964122
v 0.004438735079020262 0.029720519698132584 0.008711513638927026
v 0.004438735079020262 0.029720519698132584 0.008711513638927026
v 0.004438735079020262 0.029720519698132584 0.008711513638927026
v 0.004438735079020262 0.029720519698132584 0.008711513638927026
v 0.008442975580692291 0.02528178250117288 0.016570279409977486
v 0.008442975580692291 0.02528178250117288 0.016570279409977486
v 0.008442975580692291 0.02528178250117288 0.016570279409977486
v 0.008442975580692291 0.02528178250117288 0.016570279409977486
v 0.011620759032666683 0.018368288278242724 0.02280702995157572
v 0.011620759032666683 0.018368288278242724 0.02280702995157572
v 0.011620759032666683 0.018368288278242724 0.02280702995157572
v 0.011620759032666683 0.018368288278242724 0.02280702995157572
v 0.013661021366715431 0.009656779025847951 0.02681126935512338
v 0.013661021366715431 0.009656779025847951 0.02681126935512338
v 0.013661021366715431 0.009656779025847951 0.02681126935512338
v 0.013661021366715431 0.009656779025847951 0.02681126935512338
v 0.014364048838615417 -3.787714807588881e-9 0.028191035675842135
v 0.014364048838615417 -3.787714807588881e-9 0.028191035675842135
v 0.014364048838615417 -3.787714807588881e-9 0.028191035675842135
v 0.014364048838615417 -3.787714807588881e-9 0.028191035675842135
v 0.013661021366715431 -0.00965678623050962 0.026811266760175187
v 0.013661021366715431 -0.00965678623050962 0.026811266760175187
v 0.013661021366715431 -0.00965678623050962 0.026811266760175187
v 0.013661021366715431 -0.00965678623050962 0.026811266760175187
v 0.011620759032666683 -0.01836829440689417 0.022807025015691137
v 0.011620759032666683 -0.01836829440689417 0.022807025015691137
v 0.011620759032666683 -0.01836829440689417 0.022807025015691137
v 0.011620759032666683 -0.01836829440689417 0.022807025015691137
v 0.008442975580692291 -0.025281786953898957 0.016570272616315027
v 0.008442975580692291 -0.025281786953898957 0.016570272616315027
v 0.008442975580692291 -0.025281786953898957 0.016570272616315027
v 0.008442975580692291 -0.025281786953898957 0.016570272616315027
v 0.004438735079020262 -0.029720522039069216 0.0087115056524977
v 0.004438735079020262 -0.029720522039069216 0.0087115056524977
v 0.004438735079020262 -0.029720522039069216 0.0087115056524977
v 0.004438735079020262 -0.029720522039069216 0.0087115056524977
v 0.006913491990417242 0.02972051993971202 0.006913496912520784
v 0.006913491990417242 0.02972051993971202 0.006913496912520784
v 0.006913491990417242 0.02972051993971202 0.006913496912520784
v 0.006913491990417242 0.02972051993971202 0.006913496912520784
v 0.01315024308860302 0.025281782960684295 0.013150248252285874
v 0.01315024308860302 0.025281782960684295 0.013150248252285874
v 0.01315024308860302 0.025281782960684295 0.013150248252285874
v 0.01315024308860302 0.025281782960684295 0.013150248252285874
v 0.01809975691139698 0.018368288910705806 0.018099761811201914
v 0.01809975691139698 0.018368288910705806 0.018099761811201914
v 0.01809975691139698 0.018368288910705806 0.018099761811201914
v 0.01809975691139698 0.018368288910705806 0.018099761811201914
v 0.021277539432048798 0.009656779769352917 0.02127754358834876
v 0.021277539432048798 0.009656779769352917 0.02127754358834876
v 0.021277539432048798 0.009656779769352917 0.02127754358834876
v 0.021277539432048798 0.009656779769352917 0.02127754358834876
v 0.02237253077328205 -3.0059476509532525e-9 0.0223725337792297
v 0.02237253077328205 -3.0059476509532525e-9 0.0223725337792297
v 0.02237253077328205 -3.0059476509532525e-9 0.0223725337792297
v 0.02237253077328205 -3.0059476509532525e-9 0.0223725337792297
v 0.021277539432048798 -0.009656785487004655 0.021277540993400568
v 0.021277539432048798 -0.009656785487004655 0.021277540993400568
v 0.021277539432048798 -0.009656785487004655 0.021277540993400568
v 0.021277539432048798 -0.009656785487004655 0.021277540993400568
v 0.01809975691139698 -0.01836829377443109 0.01809975687531733
v 0.01809975691139698 -0.01836829377443109 0.01809975687531733
v 0.01809975691139698 -0.01836829377443109 0.01809975687531733
v 0.01809975691139698 -0.01836829377443109 0.01809975687531733
v 0.01315024308860302 -0.025281786494387542 0.013150241458623412
v 0.01315024308860302 -0.025281786494387542 0.013150241458623412
v 0.01315024308860302 -0.025281786494387542 0.013150241458623412
v 0.01315024308860302 -0.025281786494387542 0.013150241458623412
v 0.006913491990417242 -0.02972052179748978 0.006913488926091457
v 0.006913491990417242 -0.02972052179748978 0.006913488926091457
v 0.006913491990417242 -0.02972052179748978 0.006913488926091457
v 0.006913491990417242 -0.02972052179748978 0.006913488926091457
v 0.008711508475244045 0.02972052027221753 0.004438739668618295
v 0.008711508475244045 0.02972052027221753 0.004438739668618295
v 0.008711508475244045 0.02972052027221753 0.004438739668618295
v 0.008711508475244045 0.02972052027221753 0.004438739668618295
v 0.01657027378678322 0.025281783593147374 0.008442980111912067
v 0.01657027378678322 0.025281783593147374 0.008442980111912067
v 0.01657027378678322 0.025281783593147374 0.008442980111912067
v 0.01657027378678322 0.025281783593147374 0.008442980111912067
v 0.02280702441930771 0.018368289781216553 0.011620763061960868
v 0.02280702441930771 0.018368289781216553 0.011620763061960868
v 0.02280702441930771 0.018368289781216553 0.011620763061960868
v 0.02280702441930771 0.018368289781216553 0.011620763061960868
v 0.02681126445531845 0.009656780792699576 0.013661024499668738
v 0.02681126445531845 0.009656780792699576 0.013661024499668738
v 0.02681126445531845 0.009656780792699576 0.013661024499668738
v 0.02681126445531845 0.009656780792699576 0.013661024499668738
v 0.028191031888127327 -1.929937175496187e-9 0.014364050768552595
v 0.028191031888127327 -1.929937175496187e-9 0.014364050768552595
v 0.028191031888127327 -1.929937175496187e-9 0.014364050768552595
v 0.028191031888127327 -1.929937175496187e-9 0.014364050768552595
v 0.02681126445531845 -0.009656784463657996 0.013661021904720544
v 0.02681126445531845 -0.009656784463657996 0.013661021904720544
v 0.02681126445531845 -0.009656784463657996 0.013661021904720544
v 0.02681126445531845 -0.009656784463657996 0.013661021904720544
v 0.02280702441930771 -0.018368292903920343 0.011620758126076288
v 0.02280702441930771 -0.018368292903920343 0.011620758126076288
v 0.02280702441930771 -0.018368292903920343 0.011620758126076288
v 0.02280702441930771 -0.018368292903920343 0.011620758126076288
v 0.01657027378678322 -0.025281785861924463 0.008442973318249605
v 0.01657027378678322 -0.025281785861924463 0.008442973318249605
v 0.01657027378678322 -0.025281785861924463 0.008442973318249605
v 0.01657027378678322 -0.025281785861924463 0.008442973318249605
v 0.008711508475244045 -0.02972052146498427 0.004438731682188968
v 0.008711508475244045 -0.02972052146498427 0.004438731682188968
v 0.008711508475244045 -0.02972052146498427 0.004438731682188968
v 0.008711508475244045 -0.02972052146498427 0.004438731682188968
v 0.009656781330704689 0.029720520663101203 0.0015294880218200539
v 0.009656781330704689 0.029720520663101203 0.0015294880218200539
v 0.009656781330704689 0.029720520663101203 0.0015294880218200539
v 0.009656781330704689 0.029720520663101203 0.0015294880218200539
v 0.01836828887462616 0.025281784336652246 0.002909255043629472
v 0.01836828887462616 0.025281784336652246 0.002909255043629472
v 0.01836828887462616 0.025281784336652246 0.002909255043629472
v 0.01836828887462616 0.025281784336652246 0.002909255043629472
v 0.02528178133070469 0.01836829080456321 0.004004243973280844
v 0.02528178133070469 0.01836829080456321 0.004004243973280844
v 0.02528178133070469 0.01836829080456321 0.004004243973280844
v 0.02528178133070469 0.01836829080456321 0.004004243973280844
v 0.029720516875386238 0.009656781995715706 0.0047072694378479055
v 0.029720516875386238 0.009656781995715706 0.0047072694378479055
v 0.029720516875386238 0.009656781995715706 0.0047072694378479055
v 0.029720516875386238 0.009656781995715706 0.0047072694378479055
v 0.03125 -6.650110158041108e-10 0.004949514487804978
v 0.03125 -6.650110158041108e-10 0.004949514487804978
v 0.03125 -6.650110158041108e-10 0.004949514487804978
v 0.03125 -6.650110158041108e-10 0.004949514487804978
v 0.029720516875386238 -0.009656783260641866 0.00470726684289971
v 0.029720516875386238 -0.009656783260641866 0.00470726684289971
v 0.029720516875386238 -0.009656783260641866 0.00470726684289971
v 0.029720516875386238 -0.009656783260641866 0.00470726684289971
v 0.02528178133070469 -0.018368291880573685 0.004004239037396265
v 0.02528178133070469 -0.018368291880573685 0.004004239037396265
v 0.02528178133070469 -0.018368291880573685 0.004004239037396265
v 0.02528178133070469 -0.018368291880573685 0.004004239037396265
v 0.01836828887462616 -0.02528178511841959 0.0029092482499670095
v 0.01836828887462616 -0.02528178511841959 0.0029092482499670095
v 0.01836828887462616 -0.02528178511841959 0.0029092482499670095
v 0.01836828887462616 -0.02528178511841959 0.0029092482499670095
v 0.009656781330704689 -0.029720521074100597 0.001529480035390727
v 0.009656781330704689 -0.029720521074100597 0.001529480035390727
v 0.009656781330704689 -0.029720521074100597 0.001529480035390727
v 0.009656781330704689 -0.029720521074100597 0.001529480035390727
v 0.009656781330704689 0.029720521074100597 -0.001529480035390727
v 0.009656781330704689 0.029720521074100597 -0.001529480035390727
v 0.009656781330704689 0.029720521074100597 -0.001529480035390727
v 0.009656781330704689 0.029720521074100597 -0.001529480035390727
v 0.01836828887462616 0.02528178511841959 -0.0029092482499670095
v 0.01836828887462616 0.02528178511841959 -0.0029092482499670095
v 0.01836828887462616 0.02528178511841959 -0.0029092482499670095
v 0.01836828887462616 0.02528178511841959 -0.0029092482499670095
v 0.02528178133070469 0.018368291880573685 -0.004004239037396265
v 0.02528178133070469 0.018368291880573685 -0.004004239037396265
v 0.02528178133070469 0.018368291880573685 -0.004004239037396265
v 0.02528178133070469 0.018368291880573685 -0.004004239037396265
v 0.029720516875386238 0.009656783260641866 -0.00470726684289971
v 0.029720516875386238 0.009656783260641866 -0.00470726684289971
v 0.029720516875386238 0.009656783260641866 -0.00470726684289971
v 0.029720516875386238 0.009656783260641866 -0.00470726684289971
v 0.03125 6.650110196311326e-10 -0.004949514487804978
v 0.03125 6.650110196311326e-10 -0.004949514487804978
v 0.03125 6.650110196311326e-10 -0.004949514487804978
v 0.03125 6.650110196311326e-10 -0.004949514487804978
v 0.029720516875386238 -0.009656781995715706 -0.0047072694378479055
v 0.029720516875386238 -0.009656781995715706 -0.0047072694378479055
v 0.029720516875386238 -0.009656781995715706 -0.0047072694378479055
v 0.029720516875386238 -0.009656781995715706 -0.0047072694378479055
v 0.02528178133070469 -0.01836829080456321 -0.004004243973280844
v 0.02528178133070469 -0.01836829080456321 -0.004004243973280844
v 0.02528178133070469 -0.01836829080456321 -0.004004243973280844
v 0.02528178133070469 -0.01836829080456321 -0.004004243973280844
v 0.01836828887462616 -0.025281784336652246 -0.002909255043629472
v 0.01836828887462616 -0.025281784336652246 -0.002909255043629472
v 0.01836828887462616 -0.025281784336652246 -0.002909255043629472
v 0.01836828887462616 -0.025281784336652246 -0.002909255043629472
v 0.009656781330704689 -0.029720520663101203 -0.0015294880218200539
v 0.009656781330704689 -0.029720520663101203 -0.0015294880218200539
v 0.009656781330704689 -0.029720520663101203 -0.0015294880218200539
v 0.009656781330704689 -0.029720520663101203 -0.0015294880218200539
v 0.008711508475244045 0.02972052146498427 -0.004438731682188968
v 0.008711508475244045 0.02972052146498427 -0.004438731682188968
v 0.008711508475244045 0.02972052146498427 -0.004438731682188968
v 0.008711508475244045 0.02972052146498427 -0.004438731682188968
v 0.01657027378678322 0.025281785861924463 -0.008442973318249605
v 0.01657027378678322 0.025281785861924463 -0.008442973318249605
v 0.01657027378678322 0.025281785861924463 -0.008442973318249605
v 0.01657027378678322 0.025281785861924463 -0.008442973318249605
v 0.02280702441930771 0.018368292903920343 -0.011620758126076288
v 0.02280702441930771 0.018368292903920343 -0.011620758126076288
v 0.02280702441930771 0.018368292903920343 -0.011620758126076288
v 0.02280702441930771 0.018368292903920343 -0.011620758126076288
v 0.02681126445531845 0.009656784463657996 -0.013661021904720544
v 0.02681126445531845 0.009656784463657996 -0.013661021904720544
v 0.02681126445531845 0.009656784463657996 -0.013661021904720544
v 0.02681126445531845 0.009656784463657996 -0.013661021904720544
v 0.028191031888127327 1.9299371793232094e-9 -0.014364050768552595
v 0.028191031888127327 1.9299371793232094e-9 -0.014364050768552595
v 0.028191031888127327 1.9299371793232094e-9 -0.014364050768552595
v 0.028191031888127327 1.9299371793232094e-9 -0.014364050768552595
v 0.02681126445531845 -0.009656780792699576 -0.013661024499668738
v 0.02681126445531845 -0.009656780792699576 -0.013661024499668738
v 0.02681126445531845 -0.009656780792699576 -0.013661024499668738
v 0.02681126445531845 -0.009656780792699576 -0.013661024499668738
v 0.02280702441930771 -0.018368289781216553 -0.011620763061960868
v 0.02280702441930771 -0.018368289781216553 -0.011620763061960868
v 0.02280702441930771 -0.018368289781216553 -0.011620763061960868
v 0.02280702441930771 -0.018368289781216553 -0.011620763061960868
v 0.01657027378678322 -0.025281783593147374 -0.008442980111912067
v 0.01657027378678322 -0.025281783593147374 -0.008442980111912067
v 0.01657027378678322 -0.025281783593147374 -0.008442980111912067
v 0.01657027378678322 -0.025281783593147374 -0.008442980111912067
v 0.008711508475244045 -0.02972052027221753 -0.004438739668618295
v 0.008711508475244045 -0.02972052027221753 -0.004438739668618295
v 0.008711508475244045 -0.02972052027221753 -0.004438739668618295
v 0.008711508475244045 -0.02972052027221753 -0.004438739668618295
v 0.006913491990417242 0.02972052179748978 -0.006913488926091457
v 0.006913491990417242 0.02972052179748978 -0.006913488926091457
v 0.006913491990417242 0.02972052179748978 -0.006913488926091457
v 0.006913491990417242 0.02972052179748978 -0.006913488926091457
v 0.01315024308860302 0.025281786494387542 -0.013150241458623412
v 0.01315024308860302 0.025281786494387542 -0.013150241458623412
v 0.01315024308860302 0.025281786494387542 -0.013150241458623412
v 0.01315024308860302 0.025281786494387542 -0.013150241458623412
v 0.01809975691139698 0.01836829377443109 -0.01809975687531733
v 0.01809975691139698 0.01836829377443109 -0.01809975687531733
v 0.01809975691139698 0.01836829377443109 -0.01809975687531733
v 0.01809975691139698 0.01836829377443109 -0.01809975687531733
v 0.021277539432048798 0.009656785487004655 -0.021277540993400568
v 0.021277539432048798 0.009656785487004655 -0.021277540993400568
v 0.021277539432048798 0.009656785487004655 -0.021277540993400568
v 0.021277539432048798 0.009656785487004655 -0.021277540993400568
v 0.02237253077328205 3.0059476547802747e-9 -0.0223725337792297
v 0.02237253077328205 3.0059476547802747e-9 -0.0223725337792297
v 0.02237253077328205 3.0059476547802747e-9 -0.0223725337792297
v 0.02237253077328205 3.0059476547802747e-9 -0.0223725337792297
v 0.021277539432048798 -0.009656779769352917 -0.02127754358834876
v 0.021277539432048798 -0.009656779769352917 -0.02127754358834876
v 0.021277539432048798 -0.009656779769352917 -0.02127754358834876
v 0.021277539432048798 -0.009656779769352917 -0.02127754358834876
v 0.01809975691139698 -0.018368288910705806 -0.018099761811201914
v 0.01809975691139698 -0.018368288910705806 -0.018099761811201914
v 0.01809975691139698 -0.018368288910705806 -0.018099761811201914
v 0.01809975691139698 -0.018368288910705806 -0.018099761811201914
v 0.01315024308860302 -0.025281782960684295 -0.013150248252285874
v 0.01315024308860302 -0.025281782960684295 -0.013150248252285874
v 0.01315024308860302 -0.025281782960684295 -0.013150248252285874
v 0.01315024308860302 -0.025281782960684295 -0.013150248252285874
v 0.006913491990417242 -0.02972051993971202 -0.006913496912520784
v 0.006913491990417242 -0.02972051993971202 -0.006913496912520784
v 0.006913491990417242 -0.02972051993971202 -0.006913496912520784
v 0.006913491990417242 -0.02972051993971202 -0.006913496912520784
v 0.004438735079020262 0.029720522039069216 -0.0087115056524977
v 0.004438735079020262 0.029720522039069216 -0.0087115056524977
v 0.004438735079020262 0.029720522039069216 -0.0087115056524977
v 0.004438735079020262 0.029720522039069216 -0.0087115056524977
v 0.008442975580692291 0.025281786953898957 -0.016570272616315027
v 0.008442975580692291 0.025281786953898957 -0.016570272616315027
v 0.008442975580692291 0.025281786953898957 -0.016570272616315027
v 0.008442975580692291 0.025281786953898957 -0.016570272616315027
v 0.011620759032666683 0.01836829440689417 -0.022807025015691137
v 0.011620759032666683 0.01836829440689417 -0.022807025015691137
v 0.011620759032666683 0.01836829440689417 -0.022807025015691137
v 0.011620759032666683 0.01836829440689417 -0.022807025015691137
v 0.013661021366715431 0.00965678623050962 -0.026811266760175187
v 0.013661021366715431 0.00965678623050962 -0.026811266760175187
v 0.013661021366715431 0.00965678623050962 -0.026811266760175187
v 0.013661021366715431 0.00965678623050962 -0.026811266760175187
v 0.014364048838615417 3.787714811415903e-9 -0.028191035675842135
v 0.014364048838615417 3.787714811415903e-9 -0.028191035675842135
v 0.014364048838615417 3.787714811415903e-9 -0.028191035675842135
v 0.014364048838615417 3.787714811415903e-9 -0.028191035675842135
v 0.013661021366715431 -0.009656779025847951 -0.02681126935512338
v 0.013661021366715431 -0.009656779025847951 -0.02681126935512338
v 0.013661021366715431 -0.009656779025847951 -0.02681126935512338
v 0.013661021366715431 -0.009656779025847951 -0.02681126935512338
v 0.011620759032666683 -0.018368288278242724 -0.02280702995157572
v 0.011620759032666683 -0.018368288278242724 -0.02280702995157572
v 0.011620759032666683 -0.018368288278242724 -0.02280702995157572
v 0.011620759032666683 -0.018368288278242724 -0.02280702995157572
v 0.008442975580692291 -0.02528178250117288 -0.016570279409977486
v 0.008442975580692291 -0.02528178250117288 -0.016570279409977486
v 0.008442975580692291 -0.02528178250117288 -0.016570279409977486
v 0.008442975580692291 -0.02528178250117288 -0.016570279409977486
v 0.004438735079020262 -0.029720519698132584 -0.008711513638927026
v 0.004438735079020262 -0.029720519698132584 -0.008711513638927026
v 0.004438735079020262 -0.029720519698132584 -0.008711513638927026
v 0.004438735079020262 -0.029720519698132584 -0.008711513638927026
v 0.0015294838231056929 0.029720522166074997 -0.009656778634964122
v 0.0015294838231056929 0.029720522166074997 -0.009656778634964122
v 0.0015294838231056929 0.029720522166074997 -0.009656778634964122
v 0.0015294838231056929 0.029720522166074997 -0.009656778634964122
v 0.002909251255914569 0.02528178719547821 -0.018368287945737218
v 0.002909251255914569 0.02528178719547821 -0.018368287945737218
v 0.002909251255914569 0.02528178719547821 -0.018368287945737218
v 0.002909251255914569 0.02528178719547821 -0.018368287945737218
v 0.004004240967333317 0.018368294739399677 -0.025281782259593627
v 0.004004240967333317 0.018368294739399677 -0.025281782259593627
v 0.004004240967333317 0.018368294739399677 -0.025281782259593627
v 0.004004240967333317 0.018368294739399677 -0.025281782259593627
v 0.0047072675079107285 0.00965678662139345 -0.029720519571126803
v 0.0047072675079107285 0.00965678662139345 -0.029720519571126803
v 0.0047072675079107285 0.00965678662139345 -0.029720519571126803
v 0.0047072675079107285 0.00965678662139345 -0.029720519571126803
v 0.004949513822793961 4.1987142691553465e-9 -0.031250004198714265
v 0.004949513822793961 4.1987142691553465e-9 -0.031250004198714265
v 0.004949513822793961 4.1987142691553465e-9 -0.031250004198714265
v 0.004949513822793961 4.1987142691553465e-9 -0.031250004198714265
v 0.0047072675079107285 -0.009656778634964122 -0.029720522166074997
v 0.0047072675079107285 -0.009656778634964122 -0.029720522166074997
v 0.0047072675079107285 -0.009656778634964122 -0.029720522166074997
v 0.0047072675079107285 -0.009656778634964122 -0.029720522166074997
v 0.004004240967333317 -0.018368287945737218 -0.02528178719547821
v 0.004004240967333317 -0.018368287945737218 -0.02528178719547821
v 0.004004240967333317 -0.018368287945737218 -0.02528178719547821
v 0.004004240967333317 -0.018368287945737218 -0.02528178719547821
v 0.002909251255914569 -0.025281782259593627 -0.018368294739399677
v 0.002909251255914569 -0.025281782259593627 -0.018368294739399677
v 0.002909251255914569 -0.025281782259593627 -0.018368294739399677
v 0.002909251255914569 -0.025281782259593627 -0.018368294739399677
v 0.0015294838231056929 -0.029720519571126803 -0.00965678662139345
v 0.0015294838231056929 -0.029720519571126803 -0.00965678662139345
v 0.0015294838231056929 -0.029720519571126803 -0.00965678662139345
v 0.0015294838231056929 -0.029720519571126803 -0.00965678662139345
v -0.0015294838231056929 0.029720522166074997 -0.009656778634964122
v -0.0015294838231056929 0.029720522166074997 -0.009656778634964122
v -0.0015294838231056929 0.029720522166074997 -0.009656778634964122
v -0.0015294838231056929 0.029720522166074997 -0.009656778634964122
v -0.002909251255914569 0.02528178719547821 -0.018368287945737218
v -0.002909251255914569 0.02528178719547821 -0.018368287945737218
v -0.002909251255914569 0.02528178719547821 -0.018368287945737218
v -0.002909251255914569 0.02528178719547821 -0.018368287945737218
v -0.004004240967333317 0.018368294739399677 -0.025281782259593627
v -0.004004240967333317 0.018368294739399677 -0.025281782259593627
v -0.004004240967333317 0.018368294739399677 -0.025281782259593627
v -0.004004240967333317 0.018368294739399677 -0.025281782259593627
v -0.0047072675079107285 0.00965678662139345 -0.029720519571126803
v -0.0047072675079107285 0.00965678662139345 -0.029720519571126803
v -0.0047072675079107285 0.00965678662139345 -0.029720519571126803
v -0.0047072675079107285 0.00965678662139345 -0.029720519571126803
v -0.004949513822793961 4.1987142691553465e-9 -0.031250004198714265
v -0.004949513822793961 4.1987142691553465e-9 -0.031250004198714265
v -0.004949513822793961 4.1987142691553465e-9 -0.031250004198714265
v -0.004949513822793961 4.1987142691553465e-9 -0.031250004198714265
v -0.0047072675079107285 -0.009656778634964122 -0.029720522166074997
v -0.0047072675079107285 -0.009656778634964122 -0.029720522166074997
v -0.0047072675079107285 -0.009656778634964122 -0.029720522166074997
v -0.0047072675079107285 -0.009656778634964122 -0.029720522166074997
v -0.004004240967333317 -0.018368287945737218 -0.02528178719547821
v -0.004004240967333317 -0.018368287945737218 -0.02528178719547821
v -0.004004240967333317 -0.018368287945737218 -0.02528178719547821
v -0.004004240967333317 -0.018368287945737218 -0.02528178719547821
v -0.002909251255914569 -0.025281782259593627 -0.018368294739399677
v -0.002909251255914569 -0.025281782259593627 -0.018368294739399677
v -0.002909251255914569 -0.025281782259593627 -0.018368294739399677
v -0.002909251255914569 -0.025281782259593627 -0.018368294739399677
v -0.0015294838231056929 -0.029720519571126803 -0.00965678662139345
v -0.0015294838231056929 -0.029720519571126803 -0.00965678662139345
v -0.0015294838231056929 -0.029720519571126803 -0.00965678662139345
v -0.0015294838231056929 -0.029720519571126803 -0.00965678662139345
v -0.004438735079020262 0.029720522039069216 -0.0087115056524977
v -0.004438735079020262 0.029720522039069216 -0.0087115056524977
v -0.004438735079020262 0.029720522039069216 -0.0087115056524977
v -0.004438735079020262 0.029720522039069216 -0.0087115056524977
v -0.008442975580692291 0.025281786953898957 -0.016570272616315027
v -0.008442975580692291 0.025281786953898957 -0.016570272616315027
v -0.008442975580692291 0.025281786953898957 -0.016570272616315027
v -0.008442975580692291 0.025281786953898957 -0.016570272616315027
v -0.011620759032666683 0.01836829440689417 -0.022807025015691137
v -0.011620759032666683 0.01836829440689417 -0.022807025015691137
v -0.011620759032666683 0.01836829440689417 -0.022807025015691137
v -0.011620759032666683 0.01836829440689417 -0.022807025015691137
v -0.013661021366715431 0.00965678623050962 -0.026811266760175187
v -0.013661021366715431 0.00965678623050962 -0.026811266760175187
v -0.013661021366715431 0.00965678623050962 -0.026811266760175187
v -0.013661021366715431 0.00965678623050962 -0.026811266760175187
v -0.014364048838615417 3.787714811415903e-9 -0.028191035675842135
v -0.014364048838615417 3.787714811415903e-9 -0.028191035675842135
v -0.014364048838615417 3.787714811415903e-9 -0.028191035675842135
v -0.014364048838615417 3.787714811415903e-9 -0.028191035675842135
v -0.013661021366715431 -0.009656779025847951 -0.02681126935512338
v -0.013661021366715431 -0.009656779025847951 -0.02681126935512338
v -0.013661021366715431 -0.009656779025847951 -0.02681126935512338
v -0.013661021366715431 -0.009656779025847951 -0.02681126935512338
v -0.011620759032666683 -0.018368288278242724 -0.02280702995157572
v -0.011620759032666683 -0.018368288278242724 -0.02280702995157572
v -0.011620759032666683 -0.018368288278242724 -0.02280702995157572
v -0.011620759032666683 -0.018368288278242724 -0.02280702995157572
v -0.008442975580692291 -0.02528178250117288 -0.016570279409977486
v -0.008442975580692291 -0.02528178250117288 -0.016570279409977486
v -0.008442975580692291 -0.02528178250117288 -0.016570279409977486
v -0.008442975580692291 -0.02528178250117288 -0.016570279409977486
v -0.004438735079020262 -0.029720519698132584 -0.008711513638927026
v -0.004438735079020262 -0.029720519698132584 -0.008711513638927026
v -0.004438735079020262 -0.029720519698132584 -0.008711513638927026
v -0.004438735079020262 -0.029720519698132584 -0.008711513638927026
v -0.006913491990417242 0.02972052179748978 -0.006913488926091457
v -0.006913491990417242 0.02972052179748978 -0.006913488926091457
v -0.006913491990417242 0.02972052179748978 -0.006913488926091457
v -0.006913491990417242 0.02972052179748978 -0.006913488926091457
v -0.01315024308860302 0.025281786494387542 -0.013150241458623412
v -0.01315024308860302 0.025281786494387542 -0.013150241458623412
v -0.01315024308860302 0.025281786494387542 -0.013150241458623412
v -0.01315024308860302 0.025281786494387542 -0.013150241458623412
v -0.01809975691139698 0.01836829377443109 -0.01809975687531733
v -0.01809975691139698 0.01836829377443109 -0.01809975687531733
v -0.01809975691139698 0.01836829377443109 -0.01809975687531733
v -0.01809975691139698 0.01836829377443109 -0.01809975687531733
v -0.021277539432048798 0.009656785487004655 -0.021277540993400568
v -0.021277539432048798 0.009656785487004655 -0.021277540993400568
v -0.021277539432048798 0.009656785487004655 -0.021277540993400568
v -0.021277539432048798 0.009656785487004655 -0.021277540993400568
v -0.02237253077328205 3.0059476547802747e-9 -0.0223725337792297
v -0.02237253077328205 3.0059476547802747e-9 -0.0223725337792297
v -0.02237253077328205 3.0059476547802747e-9 -0.0223725337792297
v -0.02237253077328205 3.0059476547802747e-9 -0.0223725337792297
v -0.021277539432048798 -0.009656779769352917 -0.02127754358834876
v -0.021277539432048798 -0.009656779769352917 -0.02127754358834876
v -0.021277539432048798 -0.009656779769352917 -0.02127754358834876
v -0.021277539432048798 -0.009656779769352917 -0.02127754358834876
v -0.01809975691139698 -0.018368288910705806 -0.018099761811201914
v -0.01809975691139698 -0.018368288910705806 -0.018099761811201914
v -0.01809975691139698 -0.018368288910705806 -0.018099761811201914
v -0.01809975691139698 -0.018368288910705806 -0.018099761811201914
v -0.01315024308860302 -0.025281782960684295 -0.013150248252285874
v -0.01315024308860302 -0.025281782960684295 -0.013150248252285874
v -0.01315024308860302 -0.025281782960684295 -0.013150248252285874
v -0.01315024308860302 -0.025281782960684295 -0.013150248252285874
v -0.006913491990417242 -0.02972051993971202 -0.006913496912520784
v -0.006913491990417242 -0.02972051993971202 -0.006913496912520784
v -0.006913491990417242 -0.02972051993971202 -0.006913496912520784
v -0.006913491990417242 -0.02972051993971202 -0.006913496912520784
v -0.008711508475244045 0.02972052146498427 -0.004438731682188968
v -0.008711508475244045 0.02972052146498427 -0.004438731682188968
v -0.008711508475244045 0.02972052146498427 -0.004438731682188968
v -0.008711508475244045 0.02972052146498427 -0.004438731682188968
v -0.01657027378678322 0.025281785861924463 -0.008442973318249605
v -0.01657027378678322 0.025281785861924463 -0.008442973318249605
v -0.01657027378678322 0.025281785861924463 -0.008442973318249605
v -0.01657027378678322 0.025281785861924463 -0.008442973318249605
v -0.02280702441930771 0.018368292903920343 -0.011620758126076288
v -0.02280702441930771 0.018368292903920343 -0.011620758126076288
v -0.02280702441930771 0.018368292903920343 -0.011620758126076288
v -0.02280702441930771 0.018368292903920343 -0.011620758126076288
v -0.02681126445531845 0.009656784463657996 -0.013661021904720544
v -0.02681126445531845 0.009656784463657996 -0.013661021904720544
v -0.02681126445531845 0.009656784463657996 -0.013661021904720544
v -0.02681126445531845 0.009656784463657996 -0.013661021904720544
v -0.028191031888127327 1.9299371793232094e-9 -0.014364050768552595
v -0.028191031888127327 1.9299371793232094e-9 -0.014364050768552595
v -0.028191031888127327 1.9299371793232094e-9 -0.014364050768552595
v -0.028191031888127327 1.9299371793232094e-9 -0.014364050768552595
v -0.02681126445531845 -0.009656780792699576 -0.013661024499668738
v -0.02681126445531845 -0.009656780792699576 -0.013661024499668738
v -0.02681126445531845 -0.009656780792699576 -0.013661024499668738
v -0.02681126445531845 -0.009656780792699576 -0.013661024499668738
v -0.02280702441930771 -0.018368289781216553 -0.011620763061960868
v -0.02280702441930771 -0.018368289781216553 -0.011620763061960868
v -0.02280702441930771 -0.018368289781216553 -0.011620763061960868
v -0.02280702441930771 -0.018368289781216553 -0.011620763061960868
v -0.01657027378678322 -0.025281783593147374 -0.008442980111912067
v -0.01657027378678322 -0.025281783593147374 -0.008442980111912067
v -0.01657027378678322 -0.025281783593147374 -0.008442980111912067
v -0.01657027378678322 -0.025281783593147374 -0.008442980111912067
v -0.008711508475244045 -0.02972052027221753 -0.004438739668618295
v -0.008711508475244045 -0.02972052027221753 -0.004438739668618295
v -0.008711508475244045 -0.02972052027221753 -0.004438739668618295
v -0.008711508475244045 -0.02972052027221753 -0.004438739668618295
v -0.009656781330704689 0.029720521074100597 -0.001529480035390727
v -0.009656781330704689 0.029720521074100597 -0.001529480035390727
v -0.009656781330704689 0.029720521074100597 -0.001529480035390727
v -0.009656781330704689 0.029720521074100597 -0.001529480035390727
v -0.01836828887462616 0.02528178511841959 -0.0029092482499670095
v -0.01836828887462616 0.02528178511841959 -0.0029092482499670095
v -0.01836828887462616 0.02528178511841959 -0.0029092482499670095
v -0.01836828887462616 0.02528178511841959 -0.0029092482499670095
v -0.02528178133070469 0.018368291880573685 -0.004004239037396265
v -0.02528178133070469 0.018368291880573685 -0.004004239037396265
v -0.02528178133070469 0.018368291880573685 -0.004004239037396265
v -0.02528178133070469 0.018368291880573685 -0.004004239037396265
v -0.029720516875386238 0.009656783260641866 -0.00470726684289971
v -0.029720516875386238 0.009656783260641866 -0.00470726684289971
v -0.029720516875386238 0.009656783260641866 -0.00470726684289971
v -0.029720516875386238 0.009656783260641866 -0.00470726684289971
v -0.03125 6.650110196311326e-10 -0.004949514487804978
v -0.03125 6.650110196311326e-10 -0.004949514487804978
v -0.03125 6.650110196311326e-10 -0.004949514487804978
v -0.03125 6.650110196311326e-10 -0.004949514487804978
v -0.029720516875386238 -0.009656781995715706 -0.0047072694378479055
v -0.029720516875386238 -0.009656781995715706 -0.0047072694378479055
v -0.029720516875386238 -0.009656781995715706 -0.0047072694378479055
v -0.029720516875386238 -0.009656781995715706 -0.0047072694378479055
v -0.02528178133070469 -0.01836829080456321 -0.004004243973280844
v -0.02528178133070469 -0.01836829080456321 -0.004004243973280844
v -0.02528178133070469 -0.01836829080456321 -0.004004243973280844
v -0.02528178133070469 -0.01836829080456321 -0.004004243973280844
v -0.01836828887462616 -0.025281784336652246 -0.002909255043629472
v -0.01836828887462616 -0.025281784336652246 -0.002909255043629472
v -0.01836828887462616 -0.025281784336652246 -0.002909255043629472
v -0.01836828887462616 -0.025281784336652246 -0.002909255043629472
v -0.009656781330704689 -0.029720520663101203 -0.0015294880218200539
v -0.009656781330704689 -0.029720520663101203 -0.0015294880218200539
v -0.009656781330704689 -0.029720520663101203 -0.0015294880218200539
v -0.009656781330704689 -0.029720520663101203 -0.0015294880218200539
v -0.009656781330704689 0.029720520663101203 0.0015294880218200539
v -0.009656781330704689 0.029720520663101203 0.0015294880218200539
v -0.009656781330704689 0.029720520663101203 0.0015294880218200539
v -0.009656781330704689 0.029720520663101203 0.0015294880218200539
v -0.01836828887462616 0.025281784336652246 0.002909255043629472
v -0.01836828887462616 0.025281784336652246 0.002909255043629472
v -0.01836828887462616 0.025281784336652246 0.002909255043629472
v -0.01836828887462616 0.025281784336652246 0.002909255043629472
v -0.02528178133070469 0.01836829080456321 0.004004243973280844
v -0.02528178133070469 0.01836829080456321 0.004004243973280844
v -0.02528178133070469 0.01836829080456321 0.004004243973280844
v -0.02528178133070469 0.01836829080456321 0.004004243973280844
v -0.029720516875386238 0.009656781995715706 0.0047072694378479055
v -0.029720516875386238 0.009656781995715706 0.0047072694378479055
v -0.029720516875386238 0.009656781995715706 0.0047072694378479055
v -0.029720516875386238 0.009656781995715706 0.0047072694378479055
v -0.03125 -6.650110158041108e-10 0.004949514487804978
v -0.03125 -6.650110158041108e-10 0.004949514487804978
v -0.03125 -6.650110158041108e-10 0.004949514487804978
v -0.03125 -6.650110158041108e-10 0.004949514487804978
v -0.029720516875386238 -0.009656783260641866 0.00470726684289971
v -0.029720516875386238 -0.009656783260641866 0.00470726684289971
v -0.029720516875386238 -0.009656783260641866 0.00470726684289971
v -0.029720516875386238 -0.009656783260641866 0.00470726684289971
v -0.02528178133070469 -0.018368291880573685 0.004004239037396265
v -0.02528178133070469 -0.018368291880573685 0.004004239037396265
v -0.02528178133070469 -0.018368291880573685 0.004004239037396265
v -0.02528178133070469 -0.018368291880573685 0.004004239037396265
v -0.01836828887462616 -0.02528178511841959 0.0029092482499670095
v -0.01836828887462616 -0.02528178511841959 0.0029092482499670095
v -0.01836828887462616 -0.02528178511841959 0.0029092482499670095
v -0.01836828887462616 -0.02528178511841959 0.0029092482499670095
v -0.009656781330704689 -0.029720521074100597 0.001529480035390727
v -0.009656781330704689 -0.029720521074100597 0.001529480035390727
v -0.009656781330704689 -0.029720521074100597 0.001529480035390727
v -0.009656781330704689 -0.029720521074100597 0.001529480035390727
v -0.008711508475244045 0.02972052027221753 0.004438739668618295
v -0.008711508475244045 0.02972052027221753 0.004438739668618295
v -0.008711508475244045 0.02972052027221753 0.004438739668618295
v -0.008711508475244045 0.02972052027221753 0.004438739668618295
v -0.01657027378678322 0.025281783593147374 0.008442980111912067
v -0.01657027378678322 0.025281783593147374 0.008442980111912067
v -0.01657027378678322 0.025281783593147374 0.008442980111912067
v -0.01657027378678322 0.025281783593147374 0.008442980111912067
v -0.02280702441930771 0.018368289781216553 0.011620763061960868
v -0.02280702441930771 0.018368289781216553 0.011620763061960868
v -0.02280702441930771 0.018368289781216553 0.011620763061960868
v -0.02280702441930771 0.018368289781216553 0.011620763061960868
v -0.02681126445531845 0.009656780792699576 0.013661024499668738
v -0.02681126445531845 0.009656780792699576 0.013661024499668738
v -0.02681126445531845 0.009656780792699576 0.013661024499668738
v -0.02681126445531845 0.009656780792699576 0.013661024499668738
v -0.028191031888127327 -1.929937175496187e-9 0.014364050768552595
v -0.028191031888127327 -1.929937175496187e-9 0.014364050768552595
v -0.028191031888127327 -1.929937175496187e-9 0.014364050768552595
v -0.028191031888127327 -1.929937175496187e-9 0.014364050768552595
v -0.02681126445531845 -0.009656784463657996 0.013661021904720544
v -0.02681126445531845 -0.009656784463657996 0.013661021904720544
v -0.02681126445531845 -0.009656784463657996 0.013661021904720544
v -0.02681126445531845 -0.009656784463657996 0.013661021904720544
v -0.02280702441930771 -0.018368292903920343 0.011620758126076288
v -0.02280702441930771 -0.018368292903920343 0.011620758126076288
v -0.02280702441930771 -0.018368292903920343 0.011620758126076288
v -0.02280702441930771 -0.018368292903920343 0.011620758126076288
v -0.01657027378678322 -0.025281785861924463 0.008442973318249605
v -0.01657027378678322 -0.025281785861924463 0.008442973318249605
v -0.01657027378678322 -0.025281785861924463 0.008442973318249605
v -0.01657027378678322 -0.025281785861924463 0.008442973318249605
v -0.008711508475244045 -0.02972052146498427 0.004438731682188968
v -0.008711508475244045 -0.02972052146498427 0.004438731682188968
v -0.008711508475244045 -0.02972052146498427 0.004438731682188968
v -0.008711508475244045 -0.02972052146498427 0.004438731682188968
v -0.006913491990417242 0.02972051993971202 0.006913496912520784
v -0.006913491990417242 0.02972051993971202 0.006913496912520784
v -0.006913491990417242 0.02972051993971202 0.006913496912520784
v -0.006913491990417242 0.02972051993971202 0.006913496912520784
v -0.01315024308860302 0.025281782960684295 0.013150248252285874
v -0.01315024308860302 0.025281782960684295 0.013150248252285874
v -0.01315024308860302 0.025281782960684295 0.013150248252285874
v -0.01315024308860302 0.025281782960684295 0.013150248252285874
v -0.01809975691139698 0.018368288910705806 0.018099761811201914
v -0.01809975691139698 0.018368288910705806 0.018099761811201914
v -0.01809975691139698 0.018368288910705806 0.018099761811201914
v -0.01809975691139698 0.018368288910705806 0.018099761811201914
v -0.021277539432048798 0.009656779769352917 0.02127754358834876
v -0.021277539432048798 0.009656779769352917 0.02127754358834876
v -0.021277539432048798 0.009656779769352917 0.02127754358834876
v -0.021277539432048798 0.009656779769352917 0.02127754358834876
v -0.02237253077328205 -3.0059476509532525e-9 0.0223725337792297
v -0.02237253077328205 -3.0059476509532525e-9 0.0223725337792297
v -0.02237253077328205 -3.0059476509532525e-9 0.0223725337792297
v -0.02237253077328205 -3.0059476509532525e-9 0.0223725337792297
v -0.021277539432048798 -0.009656785487004655 0.021277540993400568
v -0.021277539432048798 -0.009656785487004655 0.021277540993400568
v -0.021277539432048798 -0.009656785487004655 0.021277540993400568
v -0.021277539432048798 -0.009656785487004655 0.021277540993400568
v -0.01809975691139698 -0.01836829377443109 0.01809975687531733
v -0.01809975691139698 -0.01836829377443109 0.01809975687531733
v -0.01809975691139698 -0.01836829377443109 0.01809975687531733
v -0.01809975691139698 -0.01836829377443109 0.01809975687531733
v -0.01315024308860302 -0.025281786494387542 0.013150241458623412
v -0.01315024308860302 -0.025281786494387542 0.013150241458623412
v -0.01315024308860302 -0.025281786494387542 0.013150241458623412
v -0.01315024308860302 -0.025281786494387542 0.013150241458623412
v -0.006913491990417242 -0.02972052179748978 0.006913488926091457
v -0.006913491990417242 -0.02972052179748978 0.006913488926091457
v -0.006913491990417242 -0.02972052179748978 0.006913488926091457
v -0.006913491990417242 -0.02972052179748978 0.006913488926091457
v -0.004438735079020262 0.029720519698132584 0.008711513638927026
v -0.004438735079020262 0.029720519698132584 0.008711513638927026
v -0.004438735079020262 0.029720519698132584 0.008711513638927026
v -0.004438735079020262 0.029720519698132584 0.008711513638927026
v -0.008442975580692291 0.02528178250117288 0.016570279409977486
v -0.008442975580692291 0.02528178250117288 0.016570279409977486
v -0.008442975580692291 0.02528178250117288 0.016570279409977486
v -0.008442975580692291 0.02528178250117288 0.016570279409977486
v -0.011620759032666683 0.018368288278242724 0.02280702995157572
v -0.011620759032666683 0.018368288278242724 0.02280702995157572
v -0.011620759032666683 0.018368288278242724 0.02280702995157572
v -0.011620759032666683 0.018368288278242724 0.02280702995157572
v -0.013661021366715431 0.009656779025847951 0.02681126935512338
v -0.013661021366715431 0.009656779025847951 0.02681126935512338
v -0.013661021366715431 0.009656779025847951 0.02681126935512338
v -0.013661021366715431 0.009656779025847951 0.02681126935512338
v -0.014364048838615417 -3.787714807588881e-9 0.028191035675842135
v -0.014364048838615417 -3.787714807588881e-9 0.028191035675842135
v -0.014364048838615417 -3.787714807588881e-9 0.028191035675842135
v -0.014364048838615417 -3.787714807588881e-9 0.028191035675842135
v -0.013661021366715431 -0.00965678623050962 0.026811266760175187
v -0.013661021366715431 -0.00965678623050962 0.026811266760175187
v -0.013661021366715431 -0.00965678623050962 0.026811266760175187
v -0.013661021366715431 -0.00965678623050962 0.026811266760175187
v -0.011620759032666683 -0.01836829440689417 0.022807025015691137
v -0.011620759032666683 -0.01836829440689417 0.022807025015691137
v -0.011620759032666683 -0.01836829440689417 0.022807025015691137
v -0.011620759032666683 -0.01836829440689417 0.022807025015691137
v -0.008442975580692291 -0.025281786953898957 0.016570272616315027
v -0.008442975580692291 -0.025281786953898957 0.016570272616315027
v -0.008442975580692291 -0.025281786953898957 0.016570272616315027
v -0.008442975580692291 -0.025281786953898957 0.016570272616315027
v -0.004438735079020262 -0.029720522039069216 0.0087115056524977
v -0.004438735079020262 -0.029720522039069216 0.0087115056524977
v -0.004438735079020262 -0.029720522039069216 0.0087115056524977
v -0.004438735079020262 -0.029720522039069216 0.0087115056524977
v -0.0015294838231056929 0.029720519571126803 0.00965678662139345
v -0.0015294838231056929 0.029720519571126803 0.00965678662139345
v -0.0015294838231056929 0.029720519571126803 0.00965678662139345
v -0.0015294838231056929 0.029720519571126803 0.00965678662139345
v -0.002909251255914569 0.025281782259593627 0.018368294739399677
v -0.002909251255914569 0.025281782259593627 0.018368294739399677
v -0.002909251255914569 0.025281782259593627 0.018368294739399677
v -0.002909251255914569 0.025281782259593627 0.018368294739399677
v -0.004004240967333317 0.018368287945737218 0.02528178719547821
v -0.004004240967333317 0.018368287945737218 0.02528178719547821
v -0.004004240967333317 0.018368287945737218 0.02528178719547821
v -0.004004240967333317 0.018368287945737218 0.02528178719547821
v -0.0047072675079107285 0.009656778634964122 0.029720522166074997
v -0.0047072675079107285 0.009656778634964122 0.029720522166074997
v -0.0047072675079107285 0.009656778634964122 0.029720522166074997
v -0.0047072675079107285 0.009656778634964122 0.029720522166074997
v -0.004949513822793961 -4.198714265328324e-9 0.031250004198714265
v -0.004949513822793961 -4.198714265328324e-9 0.031250004198714265
v -0.004949513822793961 -4.198714265328324e-9 0.031250004198714265
v -0.004949513822793961 -4.198714265328324e-9 0.031250004198714265
v -0.0047072675079107285 -0.00965678662139345 0.029720519571126803
v -0.0047072675079107285 -0.00965678662139345 0.029720519571126803
v -0.0047072675079107285 -0.00965678662139345 0.029720519571126803
v -0.0047072675079107285 -0.00965678662139345 0.029720519571126803
v -0.004004240967333317 -0.018368294739399677 0.025281782259593627
v -0.004004240967333317 -0.018368294739399677 0.025281782259593627
v -0.004004240967333317 -0.018368294739399677 0.025281782259593627
v -0.004004240967333317 -0.018368294739399677 0.025281782259593627
v -0.002909251255914569 -0.02528178719547821 0.018368287945737218
v -0.002909251255914569 -0.02528178719547821 0.018368287945737218
v -0.002909251255914569 -0.02528178719547821 0.018368287945737218
v -0.002909251255914569 -0.02528178719547821 0.018368287945737218
v -0.0015294838231056929 -0.029720522166074997 0.009656778634964122
v -0.0015294838231056929 -0.029720522166074997 0.009656778634964122
v -0.0015294838231056929 -0.029720522166074997 0.009656778634964122
v -0.0015294838231056929 -0.029720522166074997 0.009656778634964122
vt 0.0015312499599531293 0.9902250170707703
vt 0.0015312499599531293 1
vt 0 0.9902250170707703
vt 0.0013749999925494194 1
vt 0.0030624999199062586 0.9902250170707703
vt 0.004437500145286322 1
vt 2.3306009899748403e-15 0.9902250170707703
vt 0.0010999999940395355 1
vt 0.005812500137835741 0.9902250170707703
vt 0.0069125001318752766 1
vt 3.3193933712816204e-15 0.9902250170707703
vt 0.000699999975040555 1
vt 0.008012499660253525 0.9902250170707703
vt 0.00871250033378601 1
vt 0 0.9902250170707703
vt 0.00024374999338760972 1
vt 0.009412500075995922 0.9902250170707703
vt 0.009656249545514584 1
vt 8.977193988179977e-16 1
vt 8.977193988179977e-16 0.9902250170707703
vt 0.00989999994635582 1
vt 0.00989999994635582 0.9902250170707703
vt 0 1
vt 0.00024374999338760972 0.9902250170707703
vt 0.009412500075995922 1
vt 0.009656249545514584 0.9902250170707703
vt 3.3193933712816204e-15 1
vt 0.000699999975040555 0.9902250170707703
vt 0.008012499660253525 1
vt 0.00871250033378601 0.9902250170707703
vt 2.3306009899748403e-15 1
vt 0.0010999999940395355 0.9902250170707703
vt 0.005812500137835741 1
vt 0.0069125001318752766 0.9902250170707703
vt 0 1
vt 0.0013749999925494194 0.9902250170707703
vt 0.0030624999199062586 1
vt 0.004437500145286322 0.9902250170707703
vt 0 0.9902250170707703
vt 0.0013749999925494194 1
vt 0.0030624999199062586 0.9902250170707703
vt 0.004437500145286322 1
vt 2.3306009899748403e-15 0.9902250170707703
vt 0.0010999999940395355 1
vt 0.005812500137835741 0.9902250170707703
vt 0.0069125001318752766 1
vt 3.3193933712816204e-15 0.9902250170707703
vt 0.000699999975040555 1
vt 0.008012499660253525 0.9902250170707703
vt 0.00871250033378601 1
vt 0 0.9902250170707703
vt 0.00024374999338760972 1
vt 0.009412500075995922 0.9902250170707703
vt 0.009656249545514584 1
vt 8.977193988179977e-16 1
vt 8.977193988179977e-16 0.9902250170707703
vt 0.00989999994635582 1
vt 0.00989999994635582 0.9902250170707703
vt 0 1
vt 0.00024374999338760972 0.9902250170707703
vt 0.009412500075995922 1
vt 0.009656249545514584 0.9902250170707703
vt 3.3193933712816204e-15 1
vt 0.000699999975040555 0.9902250170707703
vt 0.008012499660253525 1
vt 0.00871250033378601 0.9902250170707703
vt 2.3306009899748403e-15 1
vt 0.0010999999940395355 0.9902250170707703
vt 0.005812500137835741 1
vt 0.0069125001318752766 0.9902250170707703
vt 0 1
vt 0.0013749999925494194 0.9902250170707703
vt 0.0030624999199062586 1
vt 0.004437500145286322 0.9902250170707703
vt 0 0.9902250170707703
vt 0.0013749999925494194 1
vt 0.0030624999199062586 0.9902250170707703
vt 0.004437500145286322 1
vt 2.3306009899748403e-15 0.9902250170707703
vt 0.0010999999940395355 1
vt 0.005812500137835741 0.9902250170707703
vt 0.0069125001318752766 1
vt 3.3193933712816204e-15 0.9902250170707703
vt 0.000699999975040555 1
vt 0.008012499660253525 0.9902250170707703
vt 0.00871250033378601 1
vt 0 0.9902250170707703
vt 0.00024374999338760972 1
vt 0.009412500075995922 0.9902250170707703
vt 0.009656249545514584 1
vt 8.977193988179977e-16 1
vt 8.977193988179977e-16 0.9902250170707703
vt 0.00989999994635582 1
vt 0.00989999994635582 0.9902250170707703
vt 0 1
vt 0.00024374999338760972 0.9902250170707703
vt 0.009412500075995922 1
vt 0.009656249545514584 0.9902250170707703
vt 3.3193933712816204e-15 1
vt 0.000699999975040555 0.9902250170707703
vt 0.008012499660253525 1
vt 0.00871250033378601 0.9902250170707703
vt 2.3306009899748403e-15 1
vt 0.0010999999940395355 0.9902250170707703
vt 0.005812500137835741 1
vt 0.0069125001318752766 0.9902250170707703
vt 0 1
vt 0.0013749999925494194 0.9902250170707703
vt 0.0030624999199062586 1
vt 0.004437500145286322 0.9902250170707703
vt 0 0.9902250170707703
vt 0.0013749999925494194 1
vt 0.0030624999199062586 0.9902250170707703
vt 0.004437500145286322 1
vt 2.3306009899748403e-15 0.9902250170707703
vt 0.0010999999940395355 1
vt 0.005812500137835741 0.9902250170707703
vt 0.0069125001318752766 1
vt 3.3193933712816204e-15 0.9902250170707703
vt 0.000699999975040555 1
vt 0.008012499660253525 0.9902250170707703
vt 0.00871250033378601 1
vt 0 0.9902250170707703
vt 0.00024374999338760972 1
vt 0.009412500075995922 0.9902250170707703
vt 0.009656249545514584 1
vt 8.977193988179977e-16 1
vt 8.977193988179977e-16 0.9902250170707703
vt 0.00989999994635582 1
vt 0.00989999994635582 0.9902250170707703
vt 0 1
vt 0.00024374999338760972 0.9902250170707703
vt 0.009412500075995922 1
vt 0.009656249545514584 0.9902250170707703
vt 3.3193933712816204e-15 1
vt 0.000699999975040555 0.9902250170707703
vt 0.008012499660253525 1
vt 0.00871250033378601 0.9902250170707703
vt 2.3306009899748403e-15 1
vt 0.0010999999940395355 0.9902250170707703
vt 0.005812500137835741 1
vt 0.0069125001318752766 0.9902250170707703
vt 0 1
vt 0.0013749999925494194 0.9902250170707703
vt 0.0030624999199062586 1
vt 0.004437500145286322 0.9902250170707703
vt 0 0.9902250170707703
vt 0.0013749999925494194 1
vt 0.0030624999199062586 0.9902250170707703
vt 0.004437500145286322 1
vt 2.3306009899748403e-15 0.9902250170707703
vt 0.0010999999940395355 1
vt 0.005812500137835741 0.9902250170707703
vt 0.0069125001318752766 1
vt 3.3193933712816204e-15 0.9902250170707703
vt 0.000699999975040555 1
vt 0.008012499660253525 0.9902250170707703
vt 0.00871250033378601 1
vt 0 0.9902250170707703
vt 0.00024374999338760972 1
vt 0.009412500075995922 0.9902250170707703
vt 0.009656249545514584 1
vt 8.977193988179977e-16 1
vt 8.977193988179977e-16 0.9902250170707703
vt 0.00989999994635582 1
vt 0.00989999994635582 0.9902250170707703
vt 0 1
vt 0.00024374999338760972 0.9902250170707703
vt 0.009412500075995922 1
vt 0.009656249545514584 0.9902250170707703
vt 3.3193933712816204e-15 1
vt 0.000699999975040555 0.9902250170707703
vt 0.008012499660253525 1
vt 0.00871250033378601 0.9902250170707703
vt 2.3306009899748403e-15 1
vt 0.0010999999940395355 0.9902250170707703
vt 0.005812500137835741 1
vt 0.0069125001318752766 0.9902250170707703
vt 0 1
vt 0.0013749999925494194 0.9902250170707703
vt 0.0030624999199062586 1
vt 0.004437500145286322 0.9902250170707703
vt 0 0.9902250170707703
vt 0.0013749999925494194 1
vt 0.0030624999199062586 0.9902250170707703
vt 0.004437500145286322 1
vt 2.3306009899748403e-15 0.9902250170707703
vt 0.0010999999940395355 1
vt 0.005812500137835741 0.9902250170707703
vt 0.0069125001318752766 1
vt 3.3193933712816204e-15 0.9902250170707703
vt 0.000699999975040555 1
vt 0.008012499660253525 0.9902250170707703
vt 0.00871250033378601 1
vt 0 0.9902250170707703
vt 0.00024374999338760972 1
vt 0.009412500075995922 0.9902250170707703
vt 0.009656249545514584 1
vt 8.977193988179977e-16 1
vt 8.977193988179977e-16 0.9902250170707703
vt 0.00989999994635582 1
vt 0.00989999994635582 0.9902250170707703
vt 0 1
vt 0.00024374999338760972 0.9902250170707703
vt 0.009412500075995922 1
vt 0.009656249545514584 0.9902250170707703
vt 3.3193933712816204e-15 1
vt 0.000699999975040555 0.9902250170707703
vt 0.008012499660253525 1
vt 0.00871250033378601 0.9902250170707703
vt 2.3306009899748403e-15 1
vt 0.0010999999940395355 0.9902250170707703
vt 0.005812500137835741 1
vt 0.0069125001318752766 0.9902250170707703
vt 0 1
vt 0.0013749999925494194 0.9902250170707703
vt 0.0030624999199062586 1
vt 0.004437500145286322 0.9902250170707703
vt 0 0.9902250170707703
vt 0.0013749999925494194 1
vt 0.0030624999199062586 0.9902250170707703
vt 0.004437500145286322 1
vt 2.3306009899748403e-15 0.9902250170707703
vt 0.0010999999940395355 1
vt 0.005812500137835741 0.9902250170707703
vt 0.0069125001318752766 1
vt 3.3193933712816204e-15 0.9902250170707703
vt 0.000699999975040555 1
vt 0.008012499660253525 0.9902250170707703
vt 0.00871250033378601 1
vt 0 0.9902250170707703
vt 0.00024374999338760972 1
vt 0.009412500075995922 0.9902250170707703
vt 0.009656249545514584 1
vt 8.977193988179977e-16 1
vt 8.977193988179977e-16 0.9902250170707703
vt 0.00989999994635582 1
vt 0.00989999994635582 0.9902250170707703
vt 0 1
vt 0.00024374999338760972 0.9902250170707703
vt 0.009412500075995922 1
vt 0.009656249545514584 0.9902250170707703
vt 3.3193933712816204e-15 1
vt 0.000699999975040555 0.9902250170707703
vt 0.008012499660253525 1
vt 0.00871250033378601 0.9902250170707703
vt 2.3306009899748403e-15 1
vt 0.0010999999940395355 0.9902250170707703
vt 0.005812500137835741 1
vt 0.0069125001318752766 0.9902250170707703
vt 0 1
vt 0.0013749999925494194 0.9902250170707703
vt 0.0030624999199062586 1
vt 0.004437500145286322 0.9902250170707703
vt 0 0.9902250170707703
vt 0.0013749999925494194 1
vt 0.0030624999199062586 0.9902250170707703
vt 0.004437500145286322 1
vt 2.3306009899748403e-15 0.9902250170707703
vt 0.0010999999940395355 1
vt 0.005812500137835741 0.9902250170707703
vt 0.0069125001318752766 1
vt 3.3193933712816204e-15 0.9902250170707703
vt 0.000699999975040555 1
vt 0.008012499660253525 0.9902250170707703
vt 0.00871250033378601 1
vt 0 0.9902250170707703
vt 0.00024374999338760972 1
vt 0.009412500075995922 0.9902250170707703
vt 0.009656249545514584 1
vt 8.977193988179977e-16 1
vt 8.977193988179977e-16 0.9902250170707703
vt 0.00989999994635582 1
vt 0.00989999994635582 0.9902250170707703
vt 0 1
vt 0.00024374999338760972 0.9902250170707703
vt 0.009412500075995922 1
vt 0.009656249545514584 0.9902250170707703
vt 3.3193933712816204e-15 1
vt 0.000699999975040555 0.9902250170707703
vt 0.008012499660253525 1
vt 0.00871250033378601 0.9902250170707703
vt 2.3306009899748403e-15 1
vt 0.0010999999940395355 0.9902250170707703
vt 0.005812500137835741 1
vt 0.0069125001318752766 0.9902250170707703
vt 0 1
vt 0.0013749999925494194 0.9902250170707703
vt 0.0030624999199062586 1
vt 0.004437500145286322 0.9902250170707703
vt 0 0.9902250170707703
vt 0.0013749999925494194 1
vt 0.0030624999199062586 0.9902250170707703
vt 0.004437500145286322 1
vt 2.3306009899748403e-15 0.9902250170707703
vt 0.0010999999940395355 1
vt 0.005812500137835741 0.9902250170707703
vt 0.0069125001318752766 1
vt 3.3193933712816204e-15 0.9902250170707703
vt 0.000699999975040555 1
vt 0.008012499660253525 0.9902250170707703
vt 0.00871250033378601 1
vt 0 0.9902250170707703
vt 0.00024374999338760972 1
vt 0.009412500075995922 0.9902250170707703
vt 0.009656249545514584 1
vt 8.977193988179977e-16 1
vt 8.977193988179977e-16 0.9902250170707703
vt 0.00989999994635582 1
vt 0.00989999994635582 0.9902250170707703
vt 0 1
vt 0.00024374999338760972 0.9902250170707703
vt 0.009412500075995922 1
vt 0.009656249545514584 0.9902250170707703
vt 3.3193933712816204e-15 1
vt 0.000699999975040555 0.9902250170707703
vt 0.008012499660253525 1
vt 0.00871250033378601 0.9902250170707703
vt 2.3306009899748403e-15 1
vt 0.0010999999940395355 0.9902250170707703
vt 0.005812500137835741 1
vt 0.0069125001318752766 0.9902250170707703
vt 0 1
vt 0.0013749999925494194 0.9902250170707703
vt 0.0030624999199062586 1
vt 0.004437500145286322 0.9902250170707703
vt 0 0.9902250170707703
vt 0.0013749999925494194 1
vt 0.0030624999199062586 0.9902250170707703
vt 0.004437500145286322 1
vt 2.3306009899748403e-15 0.9902250170707703
vt 0.0010999999940395355 1
vt 0.005812500137835741 0.9902250170707703
vt 0.0069125001318752766 1
vt 3.3193933712816204e-15 0.9902250170707703
vt 0.000699999975040555 1
vt 0.008012499660253525 0.9902250170707703
vt 0.00871250033378601 1
vt 0 0.9902250170707703
vt 0.00024374999338760972 1
vt 0.009412500075995922 0.9902250170707703
vt 0.009656249545514584 1
vt 8.977193988179977e-16 1
vt 8.977193988179977e-16 0.9902250170707703
vt 0.00989999994635582 1
vt 0.00989999994635582 0.9902250170707703
vt 0 1
vt 0.00024374999338760972 0.9902250170707703
vt 0.009412500075995922 1
vt 0.009656249545514584 0.9902250170707703
vt 3.3193933712816204e-15 1
vt 0.000699999975040555 0.9902250170707703
vt 0.008012499660253525 1
vt 0.00871250033378601 0.9902250170707703
vt 2.3306009899748403e-15 1
vt 0.0010999999940395355 0.9902250170707703
vt 0.005812500137835741 1
vt 0.0069125001318752766 0.9902250170707703
vt 0 1
vt 0.0013749999925494194 0.9902250170707703
vt 0.0030624999199062586 1
vt 0.004437500145286322 0.9902250170707703
vt 0 0.9902250170707703
vt 0.0013749999925494194 1
vt 0.0030624999199062586 0.9902250170707703
vt 0.004437500145286322 1
vt 2.3306009899748403e-15 0.9902250170707703
vt 0.0010999999940395355 1
vt 0.005812500137835741 0.9902250170707703
vt 0.0069125001318752766 1
vt 3.3193933712816204e-15 0.9902250170707703
vt 0.000699999975040555 1
vt 0.008012499660253525 0.9902250170707703
vt 0.00871250033378601 1
vt 0 0.9902250170707703
vt 0.00024374999338760972 1
vt 0.009412500075995922 0.9902250170707703
vt 0.009656249545514584 1
vt 8.977193988179977e-16 1
vt 8.977193988179977e-16 0.9902250170707703
vt 0.00989999994635582 1
vt 0.00989999994635582 0.9902250170707703
vt 0 1
vt 0.00024374999338760972 0.9902250170707703
vt 0.009412500075995922 1
vt 0.009656249545514584 0.9902250170707703
vt 3.3193933712816204e-15 1
vt 0.000699999975040555 0.9902250170707703
vt 0.008012499660253525 1
vt 0.00871250033378601 0.9902250170707703
vt 2.3306009899748403e-15 1
vt 0.0010999999940395355 0.9902250170707703
vt 0.005812500137835741 1
vt 0.0069125001318752766 0.9902250170707703
vt 0 1
vt 0.0013749999925494194 0.9902250170707703
vt 0.0030624999199062586 1
vt 0.004437500145286322 0.9902250170707703
vt 0 0.9902250170707703
vt 0.0013749999925494194 1
vt 0.0030624999199062586 0.9902250170707703
vt 0.004437500145286322 1
vt 2.3306009899748403e-15 0.9902250170707703
vt 0.0010999999940395355 1
vt 0.005812500137835741 0.9902250170707703
vt 0.0069125001318752766 1
vt 3.3193933712816204e-15 0.9902250170707703
vt 0.000699999975040555 1
vt 0.008012499660253525 0.9902250170707703
vt 0.00871250033378601 1
vt 0 0.9902250170707703
vt 0.00024374999338760972 1
vt 0.009412500075995922 0.9902250170707703
vt 0.009656249545514584 1
vt 8.977193988179977e-16 1
vt 8.977193988179977e-16 0.9902250170707703
vt 0.00989999994635582 1
vt 0.00989999994635582 0.9902250170707703
vt 0 1
vt 0.00024374999338760972 0.9902250170707703
vt 0.009412500075995922 1
vt 0.009656249545514584 0.9902250170707703
vt 3.3193933712816204e-15 1
vt 0.000699999975040555 0.9902250170707703
vt 0.008012499660253525 1
vt 0.00871250033378601 0.9902250170707703
vt 2.3306009899748403e-15 1
vt 0.0010999999940395355 0.9902250170707703
vt 0.005812500137835741 1
vt 0.0069125001318752766 0.9902250170707703
vt 0 1
vt 0.0013749999925494194 0.9902250170707703
vt 0.0030624999199062586 1
vt 0.004437500145286322 0.9902250170707703
vt 0 0.9902250170707703
vt 0.0013749999925494194 1
vt 0.0030624999199062586 0.9902250170707703
vt 0.004437500145286322 1
vt 2.3306009899748403e-15 0.9902250170707703
vt 0.0010999999940395355 1
vt 0.005812500137835741 0.9902250170707703
vt 0.0069125001318752766 1
vt 3.3193933712816204e-15 0.9902250170707703
vt 0.000699999975040555 1
vt 0.008012499660253525 0.9902250170707703
vt 0.00871250033378601 1
vt 0 0.9902250170707703
vt 0.00024374999338760972 1
vt 0.009412500075995922 0.9902250170707703
vt 0.009656249545514584 1
vt 8.977193988179977e-16 1
vt 8.977193988179977e-16 0.9902250170707703
vt 0.00989999994635582 1
vt 0.00989999994635582 0.9902250170707703
vt 0 1
vt 0.00024374999338760972 0.9902250170707703
vt 0.009412500075995922 1
vt 0.009656249545514584 0.9902250170707703
vt 3.3193933712816204e-15 1
vt 0.000699999975040555 0.9902250170707703
vt 0.008012499660253525 1
vt 0.00871250033378601 0.9902250170707703
vt 2.3306009899748403e-15 1
vt 0.0010999999940395355 0.9902250170707703
vt 0.005812500137835741 1
vt 0.0069125001318752766 0.9902250170707703
vt 0 1
vt 0.0013749999925494194 0.9902250170707703
vt 0.0030624999199062586 1
vt 0.004437500145286322 0.9902250170707703
vt 0 0.9902250170707703
vt 0.0013749999925494194 1
vt 0.0030624999199062586 0.9902250170707703
vt 0.004437500145286322 1
vt 2.3306009899748403e-15 0.9902250170707703
vt 0.0010999999940395355 1
vt 0.005812500137835741 0.9902250170707703
vt 0.0069125001318752766 1
vt 3.3193933712816204e-15 0.9902250170707703
vt 0.000699999975040555 1
vt 0.008012499660253525 0.9902250170707703
vt 0.00871250033378601 1
vt 0 0.9902250170707703
vt 0.00024374999338760972 1
vt 0.009412500075995922 0.9902250170707703
vt 0.009656249545514584 1
vt 8.977193988179977e-16 1
vt 8.977193988179977e-16 0.9902250170707703
vt 0.00989999994635582 1
vt 0.00989999994635582 0.9902250170707703
vt 0 1
vt 0.00024374999338760972 0.9902250170707703
vt 0.009412500075995922 1
vt 0.009656249545514584 0.9902250170707703
vt 3.3193933712816204e-15 1
vt 0.000699999975040555 0.9902250170707703
vt 0.008012499660253525 1
vt 0.00871250033378601 0.9902250170707703
vt 2.3306009899748403e-15 1
vt 0.0010999999940395355 0.9902250170707703
vt 0.005812500137835741 1
vt 0.0069125001318752766 0.9902250170707703
vt 0 1
vt 0.0013749999925494194 0.9902250170707703
vt 0.0030624999199062586 1
vt 0.004437500145286322 0.9902250170707703
vt 0 0.9902250170707703
vt 0.0013749999925494194 1
vt 0.0030624999199062586 0.9902250170707703
vt 0.004437500145286322 1
vt 2.3306009899748403e-15 0.9902250170707703
vt 0.0010999999940395355 1
vt 0.005812500137835741 0.9902250170707703
vt 0.0069125001318752766 1
vt 3.3193933712816204e-15 0.9902250170707703
vt 0.000699999975040555 1
vt 0.008012499660253525 0.9902250170707703
vt 0.00871250033378601 1
vt 0 0.9902250170707703
vt 0.00024374999338760972 1
vt 0.009412500075995922 0.9902250170707703
vt 0.009656249545514584 1
vt 8.977193988179977e-16 1
vt 8.977193988179977e-16 0.9902250170707703
vt 0.00989999994635582 1
vt 0.00989999994635582 0.9902250170707703
vt 0 1
vt 0.00024374999338760972 0.9902250170707703
vt 0.009412500075995922 1
vt 0.009656249545514584 0.9902250170707703
vt 3.3193933712816204e-15 1
vt 0.000699999975040555 0.9902250170707703
vt 0.008012499660253525 1
vt 0.00871250033378601 0.9902250170707703
vt 2.3306009899748403e-15 1
vt 0.0010999999940395355 0.9902250170707703
vt 0.005812500137835741 1
vt 0.0069125001318752766 0.9902250170707703
vt 0 1
vt 0.0013749999925494194 0.9902250170707703
vt 0.0030624999199062586 1
vt 0.004437500145286322 0.9902250170707703
vt 0 0.9902250170707703
vt 0.0013749999925494194 1
vt 0.0030624999199062586 0.9902250170707703
vt 0.004437500145286322 1
vt 2.3306009899748403e-15 0.9902250170707703
vt 0.0010999999940395355 1
vt 0.005812500137835741 0.9902250170707703
vt 0.0069125001318752766 1
vt 3.3193933712816204e-15 0.9902250170707703
vt 0.000699999975040555 1
vt 0.008012499660253525 0.9902250170707703
vt 0.00871250033378601 1
vt 0 0.9902250170707703
vt 0.00024374999338760972 1
vt 0.009412500075995922 0.9902250170707703
vt 0.009656249545514584 1
vt 8.977193988179977e-16 1
vt 8.977193988179977e-16 0.9902250170707703
vt 0.00989999994635582 1
vt 0.00989999994635582 0.9902250170707703
vt 0 1
vt 0.00024374999338760972 0.9902250170707703
vt 0.009412500075995922 1
vt 0.009656249545514584 0.9902250170707703
vt 3.3193933712816204e-15 1
vt 0.000699999975040555 0.9902250170707703
vt 0.008012499660253525 1
vt 0.00871250033378601 0.9902250170707703
vt 2.3306009899748403e-15 1
vt 0.0010999999940395355 0.9902250170707703
vt 0.005812500137835741 1
vt 0.0069125001318752766 0.9902250170707703
vt 0 1
vt 0.0013749999925494194 0.9902250170707703
vt 0.0030624999199062586 1
vt 0.004437500145286322 0.9902250170707703
vt 0 0.9902250170707703
vt 0.0013749999925494194 1
vt 0.0030624999199062586 0.9902250170707703
vt 0.004437500145286322 1
vt 2.3306009899748403e-15 0.9902250170707703
vt 0.0010999999940395355 1
vt 0.005812500137835741 0.9902250170707703
vt 0.0069125001318752766 1
vt 3.3193933712816204e-15 0.9902250170707703
vt 0.000699999975040555 1
vt 0.008012499660253525 0.9902250170707703
vt 0.00871250033378601 1
vt 0 0.9902250170707703
vt 0.00024374999338760972 1
vt 0.009412500075995922 0.9902250170707703
vt 0.009656249545514584 1
vt 8.977193988179977e-16 1
vt 8.977193988179977e-16 0.9902250170707703
vt 0.00989999994635582 1
vt 0.00989999994635582 0.9902250170707703
vt 0 1
vt 0.00024374999338760972 0.9902250170707703
vt 0.009412500075995922 1
vt 0.009656249545514584 0.9902250170707703
vt 3.3193933712816204e-15 1
vt 0.000699999975040555 0.9902250170707703
vt 0.008012499660253525 1
vt 0.00871250033378601 0.9902250170707703
vt 2.3306009899748403e-15 1
vt 0.0010999999940395355 0.9902250170707703
vt 0.005812500137835741 1
vt 0.0069125001318752766 0.9902250170707703
vt 0 1
vt 0.0013749999925494194 0.9902250170707703
vt 0.0030624999199062586 1
vt 0.004437500145286322 0.9902250170707703
vt 0 0.9902250170707703
vt 0.0013749999925494194 1
vt 0.0030624999199062586 0.9902250170707703
vt 0.004437500145286322 1
vt 2.3306009899748403e-15 0.9902250170707703
vt 0.0010999999940395355 1
vt 0.005812500137835741 0.9902250170707703
vt 0.0069125001318752766 1
vt 3.3193933712816204e-15 0.9902250170707703
vt 0.000699999975040555 1
vt 0.008012499660253525 0.9902250170707703
vt 0.00871250033378601 1
vt 0 0.9902250170707703
vt 0.00024374999338760972 1
vt 0.009412500075995922 0.9902250170707703
vt 0.009656249545514584 1
vt 8.977193988179977e-16 1
vt 8.977193988179977e-16 0.9902250170707703
vt 0.00989999994635582 1
vt 0.00989999994635582 0.9902250170707703
vt 0 1
vt 0.00024374999338760972 0.9902250170707703
vt 0.009412500075995922 1
vt 0.009656249545514584 0.9902250170707703
vt 3.3193933712816204e-15 1
vt 0.000699999975040555 0.9902250170707703
vt 0.008012499660253525 1
vt 0.00871250033378601 0.9902250170707703
vt 2.3306009899748403e-15 1
vt 0.0010999999940395355 0.9902250170707703
vt 0.005812500137835741 1
vt 0.0069125001318752766 0.9902250170707703
vt 0 1
vt 0.0013749999925494194 0.9902250170707703
vt 0.0030624999199062586 1
vt 0.004437500145286322 0.9902250170707703
vt 0 0.9902250170707703
vt 0.0013749999925494194 1
vt 0.0030624999199062586 0.9902250170707703
vt 0.004437500145286322 1
vt 2.3306009899748403e-15 0.9902250170707703
vt 0.0010999999940395355 1
vt 0.005812500137835741 0.9902250170707703
vt 0.0069125001318752766 1
vt 3.3193933712816204e-15 0.9902250170707703
vt 0.000699999975040555 1
vt 0.008012499660253525 0.9902250170707703
vt 0.00871250033378601 1
vt 0 0.9902250170707703
vt 0.00024374999338760972 1
vt 0.009412500075995922 0.9902250170707703
vt 0.009656249545514584 1
vt 8.977193988179977e-16 1
vt 8.977193988179977e-16 0.9902250170707703
vt 0.00989999994635582 1
vt 0.00989999994635582 0.9902250170707703
vt 0 1
vt 0.00024374999338760972 0.9902250170707703
vt 0.009412500075995922 1
vt 0.009656249545514584 0.9902250170707703
vt 3.3193933712816204e-15 1
vt 0.000699999975040555 0.9902250170707703
vt 0.008012499660253525 1
vt 0.00871250033378601 0.9902250170707703
vt 2.3306009899748403e-15 1
vt 0.0010999999940395355 0.9902250170707703
vt 0.005812500137835741 1
vt 0.0069125001318752766 0.9902250170707703
vt 0 1
vt 0.0013749999925494194 0.9902250170707703
vt 0.0030624999199062586 1
vt 0.004437500145286322 0.9902250170707703
vt 0 0.9902250170707703
vt 0.0013749999925494194 1
vt 0.0030624999199062586 0.9902250170707703
vt 0.004437500145286322 1
vt 2.3306009899748403e-15 0.9902250170707703
vt 0.0010999999940395355 1
vt 0.005812500137835741 0.9902250170707703
vt 0.0069125001318752766 1
vt 3.3193933712816204e-15 0.9902250170707703
vt 0.000699999975040555 1
vt 0.008012499660253525 0.9902250170707703
vt 0.00871250033378601 1
vt 0 0.9902250170707703
vt 0.00024374999338760972 1
vt 0.009412500075995922 0.9902250170707703
vt 0.009656249545514584 1
vt 8.977193988179977e-16 1
vt 8.977193988179977e-16 0.9902250170707703
vt 0.00989999994635582 1
vt 0.00989999994635582 0.9902250170707703
vt 0 1
vt 0.00024374999338760972 0.9902250170707703
vt 0.009412500075995922 1
vt 0.009656249545514584 0.9902250170707703
vt 3.3193933712816204e-15 1
vt 0.000699999975040555 0.9902250170707703
vt 0.008012499660253525 1
vt 0.00871250033378601 0.9902250170707703
vt 2.3306009899748403e-15 1
vt 0.0010999999940395355 0.9902250170707703
vt 0.005812500137835741 1
vt 0.0069125001318752766 0.9902250170707703
vt 0 1
vt 0.0013749999925494194 0.9902250170707703
vt 0.0030624999199062586 1
vt 0.004437500145286322 0.9902250170707703
f 3//3 41//41 2//2
f 4//4 7//7 45//45
f 4//4 45//45 42//42
f 8//8 11//11 49//49
f 8//8 49//49 46//46
f 12//12 15//15 53//53
f 12//12 53//53 50//50
f 16//16 20//20 58//58
f 16//16 58//58 54//54
f 19//19 24//24 62//62
f 19//19 62//62 57//57
f 23//23 28//28 66//66
f 23//23 66//66 61//61
f 27//27 32//32 70//70
f 27//27 70//70 65//65
f 31//31 36//36 74//74
f 31//31 74//74 69//69
f 73//73 35//35 1//1
f 39//39 77//77 2//2
f 40//40 43//43 81//81
f 40//40 81//81 78//78
f 44//44 47//47 85//85
f 44//44 85//85 82//82
f 48//48 51//51 89//89
f 48//48 89//89 86//86
f 52//52 56//56 94//94
f 52//52 94//94 90//90
f 55//55 60//60 98//98
f 55//55 98//98 93//93
f 59//59 64//64 102//102
f 59//59 102//102 97//97
f 63//63 68//68 106//106
f 63//63 106//106 101//101
f 67//67 72//72 110//110
f 67//67 110//110 105//105
f 109//109 71//71 1//1
f 75//75 113//113 2//2
f 76//76 79//79 117//117
f 76//76 117//117 114//114
f 80//80 83//83 121//121
f 80//80 121//121 118//118
f 84//84 87//87 125//125
f 84//84 125//125 122//122
f 88//88 92//92 130//130
f 88//88 130//130 126//126
f 91//91 96//96 134//134
f 91//91 134//134 129//129
f 95//95 100//100 138//138
f 95//95 138//138 133//133
f 99//99 104//104 142//142
f 99//99 142//142 137//137
f 103//103 108//108 146//146
f 103//103 146//146 141//141
f 145//145 107//107 1//1
f 111//111 149//149 2//2
f 112//112 115//115 153//153
f 112//112 153//153 150//150
f 116//116 119//119 157//157
f 116//116 157//157 154//154
f 120//120 123//123 161//161
f 120//120 161//161 158//158
f 124//124 128//128 166//166
f 124//124 166//166 162//162
f 127//127 132//132 170//170
f 127//127 170//170 165//165
f 131//131 136//136 174//174
f 131//131 174//174 169//169
f 135//135 140//140 178//178
f 135//135 178//178 173//173
f 139//139 144//144 182//182
f 139//139 182//182 177//177
f 181//181 143//143 1//1
f 147//147 185//185 2//2
f 148//148 151//151 189//189
f 148//148 189//189 186//186
f 152//152 155//155 193//193
f 152//152 193//193 190//190
f 156//156 159//159 197//197
f 156//156 197//197 194//194
f 160//160 164//164 202//202
f 160//160 202//202 198//198
f 163//163 168//168 206//206
f 163//163 206//206 201//201
f 167//167 172//172 210//210
f 167//167 210//210 205//205
f 171//171 176//176 214//214
f 171//171 214//214 209//209
f 175//175 180//180 218//218
f 175//175 218//218 213//213
f 217//217 179//179 1//1
f 183//183 221//221 2//2
f 184//184 187//187 225//225
f 184//184 225//225 222//222
f 188//188 191//191 229//229
f 188//188 229//229 226//226
f 192//192 195//195 233//233
f 192//192 233//233 230//230
f 196//196 200//200 238//238
f 196//196 238//238 234//234
f 199//199 204//204 242//242
f 199//199 242//242 237//237
f 203//203 208//208 246//246
f 203//203 246//246 241//241
f 207//207 212//212 250//250
f 207//207 250//250 245//245
f 211//211 216//216 254//254
f 211//211 254//254 249//249
f 253//253 215//215 1//1
f 219//219 257//257 2//2
f 220//220 223//223 261//261
f 220//220 261//261 258//258
f 224//224 227//227 265//265
f 224//224 265//265 262//262
f 228//228 231//231 269//269
f 228//228 269//269 266//266
f 232//232 236//236 274//274
f 232//232 274//274 270//270
f 235//235 240//240 278//278
f 235//235 278//278 273//273
f 239//239 244//244 282//282
f 239//239 282//282 277//277
f 243//243 248//248 286//286
f 243//243 286//286 281//281
f 247//247 252//252 290//290
f 247//247 290//290 285//285
f 289//289 251//251 1//1
f 255//255 293//293 2//2
f 256//256 259//259 297//297
f 256//256 297//297 294//294
f 260//260 263//263 301//301
f 260//260 301//301 298//298
f 264//264 267//267 305//305
f 264//264 305//305 302//302
f 268//268 272//272 310//310
f 268//268 310//310 306//306
f 271//271 276//276 314//314
f 271//271 314//314 309//309
f 275//275 280//280 318//318
f 275//275 318//318 313//313
f 279//279 284//284 322//322
f 279//279 322//322 317//317
f 283//283 288//288 326//326
f 283//283 326//326 321//321
f 325//325 287//287 1//1
f 291//291 329//329 2//2
f 292//292 295//295 333//333
f 292//292 333//333 330//330
f 296//296 299//299 337//337
f 296//296 337//337 334//334
f 300//300 303//303 341//341
f 300//300 341//341 338//338
f 304//304 308//308 346//346
f 304//304 346//346 342//342
f 307//307 312//312 350//350
f 307//307 350//350 345//345
f 311//311 316//316 354//354
f 311//311 354//354 349//349
f 315//315 320//320 358//358
f 315//315 358//358 353//353
f 319//319 324//324 362//362
f 319//319 362//362 357//357
f 361//361 323//323 1//1
f 327//327 365//365 2//2
f 328//328 331//331 369//369
f 328//328 369//369 366//366
f 332//332 335//335 373//373
f 332//332 373//373 370//370
f 336//336 339//339 377//377
f 336//336 377//377 374//374
f 340//340 344//344 382//382
f 340//340 382//382 378//378
f 343//343 348//348 386//386
f 343//343 386//386 381//381
f 347//347 352//352 390//390
f 347//347 390//390 385//385
f 351//351 356//356 394//394
f 351//351 394//394 389//389
f 355//355 360//360 398//398
f 355//355 398//398 393//393
f 397//397 359//359 1//1
f 363//363 401//401 2//2
f 364//364 367//367 405//405
f 364//364 405//405 402//402
f 368//368 371//371 409//409
f 368//368 409//409 406//406
f 372//372 375//375 413//413
f 372//372 413//413 410//410
f 376//376 380//380 418//418
f 376//376 418//418 414//414
f 379//379 384//384 422//422
f 379//379 422//422 417//417
f 383//383 388//388 426//426
f 383//383 426//426 421//421
f 387//387 392//392 430//430
f 387//387 430//430 425//425
f 391//391 396//396 434//434
f 391//391 434//434 429//429
f 433//433 395//395 1//1
f 399//399 437//437 2//2
f 400//400 403//403 441//441
f 400//400 441//441 438//438
f 404//404 407//407 445//445
f 404//404 445//445 442//442
f 408//408 411//411 449//449
f 408//408 449//449 446//446
f 412//412 416//416 454//454
f 412//412 454//454 450//450
f 415//415 420//420 458//458
f 415//415 458//458 453//453
f 419//419 424//424 462//462
f 419//419 462//462 457//457
f 423//423 428//428 466//466
f 423//423 466//466 461//461
f 427//427 432//432 470//470
f 427//427 470//470 465//465
f 469//469 431//431 1//1
f 435//435 473//473 2//2
f 436//436 439//439 477//477
f 436//436 477//477 474//474
f 440//440 443//443 481//481
f 440//440 481//481 478//478
f 444//444 447//447 485//485
f 444//444 485//485 482//482
f 448//448 452//452 490//490
f 448//448 490//490 486//486
f 451//451 456//456 494//494
f 451//451 494//494 489//489
f 455//455 460//460 498//498
f 455//455 498//498 493//493
f 459//459 464//464 502//502
f 459//459 502//502 497//497
f 463//463 468//468 506//506
f 463//463 506//506 501//501
f 505//505 467//467 1//1
f 471//471 509//509 2//2
f 472//472 475//475 513//513
f 472//472 513//513 510//510
f 476//476 479//479 517//517
f 476//476 517//517 514//514
f 480//480 483//483 521//521
f 480//480 521//521 518//518
f 484//484 488//488 526//526
f 484//484 526//526 522//522
f 487//487 492//492 530//530
f 487//487 530//530 525//525
f 491//491 496//496 534//534
f 491//491 534//534 529//529
f 495//495 500//500 538//538
f 495//495 538//538 533//533
f 499//499 504//504 542//542
f 499//499 542//542 537//537
f 541//541 503//503 1//1
f 507//507 545//545 2//2
f 508//508 511//511 549//549
f 508//508 549//549 546//546
f 512//512 515//515 553//553
f 512//512 553//553 550//550
f 516//516 519//519 557//557
f 516//516 557//557 554//554
f 520//520 524//524 562//562
f 520//520 562//562 558//558
f 523//523 528//528 566//566
f 523//523 566//566 561//561
f 527//527 532//532 570//570
f 527//527 570//570 565//565
f 531//531 536//536 574//574
f 531//531 574//574 569//569
f 535//535 540//540 578//578
f 535//535 578//578 573//573
f 577//577 539//539 1//1
f 543//543 581//581 2//2
f 544//544 547//547 585//585
f 544//544 585//585 582//582
f 548//548 551//551 589//589
f 548//548 589//589 586//586
f 552//552 555//555 593//593
f 552//552 593//593 590//590
f 556//556 560//560 598//598
f 556//556 598//598 594//594
f 559//559 564//564 602//602
f 559//559 602//602 597//597
f 563//563 568//568 606//606
f 563//563 606//606 601//601
f 567//567 572//572 610//610
f 567//567 610//610 605//605
f 571//571 576//576 614//614
f 571//571 614//614 609//609
f 613//613 575//575 1//1
f 579//579 617//617 2//2
f 580//580 583//583 621//621
f 580//580 621//621 618//618
f 584//584 587//587 625//625
f 584//584 625//625 622//622
f 588//588 591//591 629//629
f 588//588 629//629 626//626
f 592//592 596//596 634//634
f 592//592 634//634 630//630
f 595//595 600//600 638//638
f 595//595 638//638 633//633
f 599//599 604//604 642//642
f 599//599 642//642 637//637
f 603//603 608//608 646//646
f 603//603 646//646 641//641
f 607//607 612//612 650//650
f 607//607 650//650 645//645
f 649//649 611//611 1//1
f 615//615 653//653 2//2
f 616//616 619//619 657//657
f 616//616 657//657 654//654
f 620//620 623//623 661//661
f 620//620 661//661 658//658
f 624//624 627//627 665//665
f 624//624 665//665 662//662
f 628//628 632//632 670//670
f 628//628 670//670 666//666
f 631//631 636//636 674//674
f 631//631 674//674 669//669
f 635//635 640//640 678//678
f 635//635 678//678 673//673
f 639//639 644//644 682//682
f 639//639 682//682 677//677
f 643//643 648//648 686//686
f 643//643 686//686 681//681
f 685//685 647//647 1//1
f 651//651 689//689 2//2
f 652//652 655//655 693//693
f 652//652 693//693 690//690
f 656//656 659//659 697//697
f 656//656 697//697 694//694
f 660//660 663//663 701//701
f 660//660 701//701 698//698
f 664//664 668//668 706//706
f 664//664 706//706 702//702
f 667//667 672//672 710//710
f 667//667 710//710 705//705
f 671//671 676//676 714//714
f 671//671 714//714 709//709
f 675//675 680//680 718//718
f 675//675 718//718 713//713
f 679//679 684//684 722//722
f 679//679 722//722 717//717
f 721//721 683//683 1//1
f 687//687 5//5 2//2
f 688//688 691//691 9//9
f 688//688 9//9 6//6
f 692//692 695//695 13//13
f 692//692 13//13 10//10
f 696//696 699//699 17//17
f 696//696 17//17 14//14
f 700//700 704//704 22//22
f 700//700 22//22 18//18
f 703//703 708//708 26//26
f 703//703 26//26 21//21
f 707//707 712//712 30//30
f 707//707 30//30 25//25
f 711//711 716//716 34//34
f 711//711 34//34 29//29
f 715//715 720//720 38//38
f 715//715 38//38 33//33
f 37//37 719//719 1//1
